<?xml version="1.0" standalone="no"?>
<!DOCTYPE svg PUBLIC "-//W3C//DTD SVG 20010904//EN"
 "http://www.w3.org/TR/2001/REC-SVG-20010904/DTD/svg10.dtd">
<svg version="1.0" xmlns="http://www.w3.org/2000/svg"
 width="900.000000pt" height="900.000000pt" viewBox="0 0 900.000000 900.000000"
 preserveAspectRatio="xMidYMid meet">
<metadata>
Created by potrace 1.15, written by Peter Selinger 2001-2017
</metadata>
<g transform="translate(0.000000,900.000000) scale(0.100000,-0.100000)"
fill="#000000" stroke="none">
<path d="M5971 7743 c-18 -54 -37 -107 -42 -118 -5 -11 -24 -63 -43 -115 -19
-52 -37 -103 -41 -112 -6 -15 -20 -12 -128 27 -67 24 -131 47 -141 51 -16 6
-18 4 -13 -17 3 -13 27 -134 52 -269 25 -135 49 -255 53 -266 6 -19 30 -3 227
162 121 100 221 191 223 201 2 11 -11 86 -28 169 -17 82 -40 199 -52 259 -11
61 -24 113 -28 118 -3 4 -21 -36 -39 -90z"/>
<path d="M6985 7700 c-236 -37 -437 -69 -446 -71 -14 -4 -13 -16 7 -119 12
-63 29 -159 39 -212 10 -54 22 -98 27 -98 6 0 83 51 172 113 88 63 267 187
396 277 247 171 260 181 245 179 -6 -1 -203 -32 -440 -69z"/>
<path d="M4285 7033 c-665 -53 -1167 -230 -1625 -571 -145 -108 -391 -353
-494 -492 -200 -269 -354 -604 -405 -880 -7 -36 -16 -83 -21 -105 -15 -72 -9
-289 11 -373 10 -42 22 -89 28 -103 9 -24 2 -33 -88 -125 -186 -189 -264 -329
-265 -470 0 -77 37 -158 97 -210 41 -36 176 -106 228 -119 26 -6 26 -9 32
-108 7 -125 25 -196 80 -312 l42 -90 -27 -110 c-69 -277 -57 -516 34 -688 121
-226 451 -408 993 -546 112 -28 334 -75 415 -87 19 -3 60 -9 90 -14 30 -5 111
-14 180 -20 69 -6 154 -16 190 -21 203 -33 432 -44 855 -44 425 1 649 22 995
96 513 109 1004 311 1386 570 169 115 235 200 275 357 52 206 -18 512 -162
701 l-41 54 40 121 c23 67 48 162 57 211 l17 91 48 17 c113 40 198 129 219
228 34 159 -87 423 -310 671 l-69 76 10 102 c19 183 -16 430 -91 655 -92 270
-236 519 -426 732 -59 67 -66 71 -86 60 -12 -7 -25 -16 -28 -21 -4 -4 -22 -5
-40 -1 -33 7 -32 6 40 -71 266 -285 436 -623 508 -1009 25 -134 22 -367 -5
-467 -30 -112 -64 -172 -120 -213 -220 -160 -980 -302 -1952 -365 -677 -43
-1538 -41 -2065 5 -342 30 -618 83 -740 140 -110 52 -185 151 -226 298 -30
106 -32 322 -5 467 36 197 135 446 261 659 126 212 359 478 555 635 476 380
1037 570 1753 593 108 3 197 9 198 12 0 3 2 25 5 49 l5 42 -158 -2 c-87 -1
-176 -3 -198 -5z m2851 -2505 c164 -207 254 -418 225 -526 -20 -74 -113 -146
-204 -158 -61 -9 -141 10 -307 73 -188 70 -283 93 -392 93 -160 0 -225 -42
-342 -219 -76 -115 -124 -160 -221 -206 -179 -85 -361 -87 -520 -8 -27 14
-117 72 -200 128 -222 152 -316 195 -471 216 -108 15 -204 1 -287 -43 -57 -31
-73 -46 -213 -207 -131 -152 -283 -236 -501 -277 -212 -40 -347 0 -483 143
-41 44 -108 116 -149 162 -126 142 -225 188 -375 178 -101 -6 -166 -30 -321
-118 -212 -119 -336 -144 -508 -100 -250 65 -357 163 -327 303 20 96 122 249
247 371 l49 48 33 -46 c111 -154 348 -232 866 -285 351 -35 586 -44 1115 -44
732 1 1311 34 1900 109 794 102 1208 246 1285 448 10 26 22 47 26 47 5 0 38
-37 75 -82z m-533 -638 c20 -6 37 -15 37 -19 0 -13 -215 -189 -329 -271 -300
-212 -680 -399 -1006 -493 -443 -129 -830 -144 -1290 -51 -440 89 -967 274
-1467 516 -82 39 -148 74 -148 78 0 4 46 30 102 59 125 63 202 80 283 62 80
-18 137 -63 252 -197 114 -133 142 -159 227 -215 87 -57 170 -80 291 -81 219
-2 457 81 623 215 34 28 101 97 148 153 127 151 167 174 304 174 150 0 244
-39 470 -192 253 -172 349 -211 520 -211 170 0 351 64 464 165 32 28 85 92
118 142 112 169 144 190 278 182 47 -3 102 -10 123 -16z m474 -741 c50 -82 91
-198 110 -306 30 -178 -9 -340 -107 -447 -85 -92 -368 -263 -625 -376 -647
-287 -1308 -405 -2084 -372 -303 13 -544 31 -746 57 -887 113 -1481 343 -1619
628 -72 148 -81 374 -25 591 l11 39 51 -50 c66 -63 118 -98 237 -158 332 -167
863 -301 1430 -359 1052 -110 2097 63 2890 476 225 117 328 194 397 299 14 22
31 38 37 36 6 -2 25 -28 43 -58z"/>
<path d="M5419 5809 c-156 -100 -293 -189 -303 -199 -24 -23 -25 -73 -2 -99
24 -27 539 -261 574 -261 55 0 93 59 70 107 -11 22 -50 45 -205 118 -106 49
-194 92 -197 95 -2 3 95 68 216 145 121 77 226 149 234 160 36 50 -2 115 -67
115 -29 0 -90 -35 -320 -181z"/>
<path d="M3423 5834 c-23 -9 -63 -34 -89 -57 -151 -133 -115 -357 71 -447 106
-51 258 -24 343 61 176 175 43 461 -213 458 -38 0 -89 -7 -112 -15z m63 -87
c20 -17 27 -33 27 -57 0 -71 -97 -107 -148 -55 -76 75 39 182 121 112z"/>
<path d="M4945 5215 c-21 -20 -25 -34 -25 -84 0 -205 -152 -313 -418 -298
-213 12 -311 95 -312 265 0 64 -3 76 -25 97 -16 17 -35 25 -60 25 -25 0 -44
-8 -60 -25 -22 -21 -25 -33 -25 -99 0 -235 146 -381 418 -417 272 -36 510 58
600 237 48 95 66 222 41 277 -23 50 -95 62 -134 22z"/>
<path d="M3309 5187 c-140 -40 -220 -139 -190 -237 44 -147 292 -232 495 -170
244 76 249 296 8 394 -60 24 -246 32 -313 13z"/>
<path d="M5495 5187 c-101 -34 -152 -74 -180 -141 -76 -182 227 -347 489 -266
165 51 230 172 154 286 -27 39 -48 57 -111 88 -75 39 -81 40 -195 43 -78 2
-130 -2 -157 -10z"/>
<path d="M3383 1594 c-79 -18 -116 -137 -77 -250 13 -40 14 -51 2 -72 -7 -15
-13 -57 -13 -102 0 -135 35 -160 224 -160 120 0 164 -12 93 -25 -73 -13 -159
-80 -196 -153 -30 -59 -37 -129 -20 -195 8 -34 24 -73 35 -88 10 -15 19 -38
19 -51 0 -31 51 -112 85 -134 14 -9 49 -18 78 -19 29 -1 76 -10 105 -20 60
-20 128 -17 167 9 13 9 34 34 45 56 19 37 21 38 49 29 18 -6 97 -8 203 -5 95
3 189 4 208 3 123 -6 217 0 247 16 29 16 34 16 70 0 33 -15 86 -18 374 -21
366 -3 390 -1 424 51 27 42 30 125 7 203 -11 38 -23 82 -27 99 -9 42 -82 111
-130 123 -52 13 -310 15 -355 2 -23 -7 -54 -6 -98 2 -67 12 -159 1 -211 -27
-21 -10 -31 -10 -67 6 -62 28 -148 34 -217 16 -51 -13 -63 -14 -92 -1 -25 10
-80 14 -203 14 -141 0 -172 3 -182 16 -27 32 -102 66 -171 78 l-70 12 73 18
c67 16 76 16 110 2 31 -13 82 -16 292 -16 l255 0 20 -29 c31 -43 91 -63 207
-69 133 -6 199 12 258 71 37 37 46 42 74 36 17 -3 133 -7 258 -7 245 -1 278 4
309 51 9 14 19 42 22 63 3 22 14 47 25 57 29 29 38 61 38 145 0 60 -5 85 -20
110 -33 54 -66 62 -246 56 -88 -2 -179 -3 -204 -2 -50 2 -134 2 -195 -1 -22 0
-274 1 -559 4 l-519 4 -32 31 c-22 22 -51 36 -93 45 -61 15 -338 28 -379 19z
m372 -45 c24 -7 55 -27 77 -50 l37 -38 338 -5 c186 -2 349 -4 363 -3 30 2 328
-1 368 -3 15 -1 59 1 97 5 49 5 84 2 116 -8 39 -12 49 -12 64 -1 27 20 299 18
337 -2 64 -33 63 -209 -1 -244 -16 -8 -21 -20 -21 -54 0 -51 -32 -90 -81 -100
-51 -10 -181 -6 -219 7 -28 10 -46 10 -90 -2 -53 -13 -105 -9 -195 14 -15 4
-26 -3 -42 -29 -28 -44 -110 -84 -188 -92 -116 -11 -255 35 -255 85 0 14 -31
16 -273 16 -264 1 -273 1 -318 24 -43 21 -48 22 -70 8 -39 -25 -151 -39 -282
-35 -130 4 -157 12 -176 55 -16 34 -13 123 4 157 19 35 19 64 0 96 -18 31 -19
126 -2 160 7 13 24 30 37 37 32 16 318 17 375 2z m39 -600 c24 -6 66 -28 95
-50 l51 -39 173 0 c150 0 176 -2 202 -19 27 -17 33 -17 59 -4 67 34 211 25
265 -16 23 -18 25 -17 68 7 56 31 157 40 224 19 39 -12 49 -12 64 0 14 10 57
13 165 13 188 -1 205 -5 251 -51 29 -29 39 -48 45 -86 3 -26 13 -60 20 -75 17
-32 18 -118 3 -151 -21 -47 -42 -51 -240 -54 -132 -2 -198 0 -225 10 -32 10
-49 10 -94 -1 -63 -16 -165 -4 -215 26 -27 17 -30 17 -71 -4 -63 -32 -128 -38
-206 -20 -60 14 -71 14 -103 0 -50 -20 -309 -13 -356 10 -44 22 -47 21 -60
-24 -26 -87 -85 -113 -177 -79 -31 12 -75 21 -97 20 -22 -1 -52 4 -67 10 -34
14 -78 77 -78 112 0 14 -11 42 -24 61 -92 136 -22 332 138 382 51 16 134 17
190 3z"/>
<path d="M3380 1510 c-25 -25 -29 -130 -5 -150 19 -16 19 -89 0 -114 -9 -12
-15 -42 -15 -76 0 -85 14 -94 155 -99 133 -4 242 12 287 42 l32 22 22 -22 c35
-35 84 -40 345 -39 228 1 248 2 268 20 12 11 21 25 21 33 0 7 5 13 10 13 14 0
13 -12 -5 -47 -18 -36 -8 -76 24 -92 11 -6 53 -16 95 -23 135 -21 263 31 281
114 4 15 8 28 10 28 1 0 22 -9 46 -19 69 -30 120 -34 188 -17 54 14 64 14 98
0 28 -12 61 -15 130 -12 114 5 133 18 133 89 0 42 3 49 27 61 32 15 47 63 40
126 -8 75 -17 79 -184 81 -122 1 -149 -2 -164 -15 -17 -15 -22 -15 -65 0 -58
20 -135 20 -189 1 -34 -12 -41 -12 -55 0 -20 18 -272 21 -333 4 -25 -7 -43 -7
-50 -1 -7 6 -149 10 -347 11 -303 1 -335 3 -344 18 -38 69 -87 83 -283 83
-140 0 -155 -2 -173 -20z m387 -36 c15 -11 34 -33 41 -47 13 -26 16 -27 105
-28 51 0 132 0 181 1 68 1 92 -2 106 -15 16 -14 18 -14 23 0 5 13 29 15 147
13 123 -1 142 -3 150 -19 9 -16 12 -16 46 1 30 16 60 19 181 19 l144 1 13 -30
c12 -30 12 -30 31 -10 52 57 205 52 259 -9 l20 -22 10 33 11 33 145 0 145 0 3
-68 c3 -71 4 -69 -51 -82 -23 -5 -26 -9 -17 -20 6 -7 10 -35 8 -62 l-3 -48
-112 -3 c-104 -2 -113 -1 -123 18 l-11 20 -39 -20 c-29 -15 -59 -20 -112 -20
-86 0 -144 26 -169 77 l-16 33 -6 -62 c-10 -112 -59 -148 -204 -148 -91 0
-141 11 -155 33 -11 18 -10 21 16 60 l24 35 -29 28 c-16 15 -29 33 -29 39 0
23 -25 46 -43 39 -13 -5 -15 -10 -7 -19 6 -8 10 -35 8 -62 l-3 -48 -272 -2
-273 -2 -29 25 c-16 13 -33 38 -36 55 l-7 30 -16 -32 c-10 -18 -30 -42 -45
-53 -26 -19 -42 -21 -205 -21 l-177 0 -3 51 c-2 36 1 54 13 64 21 18 22 135 0
144 -19 7 -21 96 -2 115 9 9 54 11 174 9 145 -3 164 -5 190 -24z"/>
<path d="M3609 916 c-144 -51 -199 -215 -114 -340 14 -20 25 -51 25 -67 0 -22
10 -41 35 -66 32 -32 39 -35 74 -29 28 4 52 0 86 -15 59 -26 112 -27 135 -3
24 27 52 103 45 125 -12 38 7 41 39 6 42 -46 80 -54 247 -53 118 1 140 4 157
19 16 15 25 16 40 8 73 -39 197 -33 264 13 l33 22 33 -22 c55 -38 134 -49 208
-30 56 13 68 13 99 1 27 -12 75 -15 219 -13 221 4 226 6 226 97 -1 33 -7 64
-15 75 -8 11 -15 34 -15 51 0 43 -31 96 -69 116 -47 25 -335 27 -362 3 -16
-15 -22 -15 -70 1 -76 26 -168 16 -223 -22 l-42 -30 -29 23 c-64 50 -199 58
-270 14 l-36 -22 -20 26 -20 26 -188 0 -187 0 -34 35 c-58 59 -182 83 -271 51z
m196 -35 c23 -10 53 -33 68 -51 l28 -33 189 2 c220 2 209 7 211 -106 1 -59 2
-63 9 -30 15 80 71 127 161 134 79 7 125 -11 165 -60 l28 -36 34 39 c64 76
213 82 276 11 26 -29 34 -27 38 12 l3 32 160 1 159 2 33 -33 c28 -28 33 -40
33 -78 0 -28 6 -49 15 -57 12 -10 15 -28 13 -64 l-3 -51 -205 0 c-202 0 -205
0 -208 22 l-3 21 -42 -24 c-82 -47 -236 -26 -281 37 l-14 21 -14 -22 c-46 -76
-230 -83 -310 -12 -19 16 -17 18 -33 -33 -3 -12 -31 -15 -160 -14 -155 0 -156
1 -186 27 -24 22 -32 39 -38 82 -7 55 -7 55 -18 24 -6 -17 -25 -47 -41 -66
-28 -31 -29 -36 -16 -50 13 -13 13 -20 -3 -64 -17 -44 -22 -49 -52 -52 -19 -2
-55 6 -83 18 -36 16 -60 20 -88 15 -33 -6 -40 -3 -59 22 -15 18 -21 36 -18 53
4 17 -4 36 -23 60 -40 50 -55 115 -40 170 14 53 73 116 125 135 56 20 142 18
190 -4z"/>
</g>
</svg>
